#!OML:ASF F:\VICON\USERDATA\INSTALL\Justin_Nancy\Justin_Nancy.ASF
:FULLY-SPECIFIED
:DEGREES
1
root 0.710356 17.3527 -27.6259 -2.44898 1.78979 -1.21422
lowerback 6.74386 -1.20847 -1.62689
upperback 0.797958 -1.61431 3.72571
thorax -2.80404 -0.77102 4.92858
lowerneck -14.3392 -2.24257 -8.58431
upperneck 20.4642 -1.72961 2.9674
head 8.88727 -1.16586 2.23338
rclavicle -5.56597e-015 1.27222e-014
rhumerus -44.1537 -23.2042 -67.3544
rradius 20.95
rwrist 19.3371
rhand -12.901 10.1739
rfingers 7.12502
rthumb 13.1887 -19.389
lclavicle -5.56597e-015 1.27222e-014
lhumerus -25.6329 2.85222 85.0565
lradius 37.0345
lwrist -0.212245
lhand -15.2861 29.7448
lfingers 7.12502
lthumb 10.8888 59.4425
rfemur -17.7543 3.21648 26.5843
rtibia 31.0148
rfoot -6.6902 -3.54914
rtoes 2.62387
lfemur -7.47355 -0.439767 -18.1862
ltibia 64.3926
lfoot 21.4932 -11.6105
ltoes -0.139755
2
root 0.70998 17.3743 -27.3949 -2.44927 1.48555 -1.44063
lowerback 6.78055 -1.1195 -1.39965
upperback 0.621108 -1.47263 3.78301
thorax -3.02586 -0.695827 4.85234
lowerneck -13.7847 -2.18545 -8.51667
upperneck 20.4857 -1.68956 2.83157
head 8.78899 -1.16014 2.18264
rclavicle -1.55797e-014 -5.56597e-015
rhumerus -43.7308 -22.4058 -67.9035
rradius 21.3723
rwrist 18.5148
rhand -12.3909 9.4469
rfingers 7.12502
rthumb 13.6803 -20.0835
lclavicle -1.55797e-014 -5.56597e-015
lhumerus -26.2191 3.30036 85.0945
lradius 36.5772
lwrist -1.77955
lhand -14.6202 31.6167
lfingers 7.12502
lthumb 11.531 61.2795
rfemur -16.5937 3.21434 26.9385
rtibia 30.4977
rfoot -6.70487 -3.44145
rtoes -1.58555
lfemur -9.17102 0.144662 -17.9165
ltibia 65.6064
lfoot 17.3477 -11.0339
ltoes -1.92445
3
root 0.712498 17.3965 -27.1674 -2.51952 0.834128 -1.78045
lowerback 6.87926 -0.941546 -0.99711
upperback 0.558687 -1.19992 3.849
thorax -3.17837 -0.561079 4.67216
lowerneck -13.4739 -2.07107 -8.52987
upperneck 20.5524 -1.56587 2.86708
head 8.74709 -1.10259 2.21322
rclavicle -1.4561e-014 -3.18055e-015
rhumerus -43.1743 -22.3526 -67.9996
rradius 21.2291
rwrist 19.1085
rhand -12.8461 10.5948
rfingers 7.12502
rthumb 13.2416 -18.9646
lclavicle -1.4561e-014 -3.18055e-015
lhumerus -26.641 3.73805 85.0893
lradius 36.064
lwrist -3.06068
lhand -14.0235 32.4343
lfingers 7.12502
lthumb 12.1064 62.064
rfemur -15.3996 3.46918 27.4298
rtibia 30.0386
rfoot -7.14124 -3.3407
rtoes -2.65572
lfemur -10.6753 1.05407 -17.5615
ltibia 66.4823
lfoot 12.5995 -10.3299
ltoes -8.15469
4
root 0.722999 17.4246 -26.9427 -2.51859 -0.0560702 -1.93805
lowerback 6.84973 -0.655733 -0.683462
upperback 0.591277 -0.795989 3.84688
thorax -3.16779 -0.364439 4.45258
lowerneck -13.3699 -2.03507 -8.52967
upperneck 20.7057 -1.52212 2.84839
head 8.77767 -1.08768 2.2137
rclavicle 1.635e-014 -1.74931e-014
rhumerus -42.3616 -22.6263 -68.0477
rradius 20.8017
rwrist 20.1057
rhand -13.6502 12.6817
rfingers 7.12502
rthumb 12.4664 -16.9265
lclavicle 1.635e-014 -1.74931e-014
lhumerus -27.1314 4.02445 85.219
lradius 35.7436
lwrist -3.32788
lhand -14.2728 31.5091
lfingers 7.12502
lthumb 11.866 61.1528
rfemur -14.3123 3.67417 27.6822
rtibia 29.5957
rfoot -8.07022 -3.00649
rtoes -0.703662
lfemur -12.2712 2.03862 -17.5152
ltibia 67.1415
lfoot 8.52672 -9.16678
ltoes -12.3907
5
root 0.720269 17.4456 -26.7037 -2.46409 -0.178297 -1.99346
lowerback 6.53737 -0.63505 -0.593317
upperback 0.664889 -0.769718 3.80974
thorax -2.92041 -0.357019 4.35187
lowerneck -13.2916 -2.00649 -8.4259
upperneck 20.7014 -1.50802 2.82322
head 8.75932 -1.07594 2.18973
rclavicle 4.89507e-015 1.74931e-014
rhumerus -41.2599 -21.9206 -69.0839
rradius 21.2251
rwrist 19.1564
rhand -13.3281 11.4116
rfingers 7.12502
rthumb 12.7769 -18.1774
lclavicle 4.89507e-015 1.74931e-014
lhumerus -27.5272 3.93368 85.3689
lradius 35.2571
lwrist -2.79057
lhand -14.9377 30.1852
lfingers 7.12502
lthumb 11.2248 59.8649
rfemur -13.2377 3.61858 27.8342
rtibia 29.2219
rfoot -9.24827 -3.2352
rtoes 1.49944
lfemur -13.8495 2.2836 -17.5074
ltibia 67.4983
lfoot 6.79146 -8.56864
ltoes -11.986
6
root 0.707524 17.462 -26.4537 -2.46303 0.246522 -2.07477
lowerback 6.20902 -0.766255 -0.58649
upperback 0.680987 -0.950292 3.78909
thorax -2.70595 -0.450412 4.33414
lowerneck -13.1134 -2.08027 -8.39792
upperneck 20.6538 -1.63592 2.83229
head 8.71789 -1.13315 2.17358
rclavicle -9.86469e-015 3.97569e-015
rhumerus -40.2324 -20.6857 -70.4626
rradius 22.1447
rwrist 17.1693
rhand -12.7799 8.89172
rfingers 7.12502
rthumb 13.3053 -20.6635
lclavicle -9.86469e-015 3.97569e-015
lhumerus -27.9494 3.91111 85.4392
lradius 34.6898
lwrist -2.91092
lhand -15.2158 29.8096
lfingers 7.12502
lthumb 10.9566 59.5037
rfemur -12.0945 3.40633 28.0526
rtibia 28.9416
rfoot -10.3346 -3.76167
rtoes 1.42933
lfemur -15.276 2.0874 -17.4139
ltibia 67.6673
lfoot 5.52277 -8.06811
ltoes -7.65042
7
root 0.701274 17.4634 -26.2237 -2.46922 0.201178 -2.14666
lowerback 6.23123 -0.677568 -0.603696
upperback 0.653961 -0.831427 3.80777
thorax -2.75525 -0.389782 4.3546
lowerneck -13.3114 -2.11903 -8.42529
upperneck 20.9691 -1.6723 2.86161
head 8.86513 -1.15422 2.18617
rclavicle 7.77745e-015 -3.89618e-014
rhumerus -39.3904 -19.6502 -71.5092
rradius 22.9535
rwrist 15.82
rhand -12.9399 7.51391
rfingers 7.12502
rthumb 13.1511 -22.0514
lclavicle 7.77745e-015 -3.89618e-014
lhumerus -28.4145 3.81291 85.6309
lradius 34.0849
lwrist -3.0153
lhand -15.4979 27.6153
lfingers 7.12502
lthumb 10.6845 57.3236
rfemur -11.0337 3.54779 28.272
rtibia 28.6619
rfoot -10.6045 -4.13961
rtoes -0.670255
lfemur -16.7237 2.29094 -17.3933
ltibia 67.7749
lfoot 2.7714 -7.31763
ltoes -9.53197
8
root 0.695437 17.4638 -26.0078 -2.33006 0.109542 -2.28614
lowerback 6.24179 -0.550773 -0.550974
upperback 0.648219 -0.656964 3.84919
thorax -2.78117 -0.302608 4.35373
lowerneck -13.7092 -2.20939 -8.48315
upperneck 21.327 -1.75865 2.90944
head 9.06863 -1.19861 2.20394
rclavicle 6.23687e-015 -2.70347e-014
rhumerus -38.7011 -19.0227 -72.0835
rradius 23.5982
rwrist 14.6782
rhand -12.9002 8.72117
rfingers 7.12502
rthumb 13.1894 -20.8416
lclavicle 6.23687e-015 -2.70347e-014
lhumerus -28.7177 3.48941 85.9486
lradius 33.8661
lwrist -3.28457
lhand -15.0767 28.8896
lfingers 7.12502
lthumb 11.0908 58.5765
rfemur -10.2012 3.78945 28.5841
rtibia 28.3625
rfoot -10.6779 -4.60931
rtoes -1.53319
lfemur -18.4872 2.53984 -17.333
ltibia 67.8128
lfoot 0.962514 -6.14147
ltoes -11.0901
9
root 0.694817 17.4705 -25.7873 -2.15601 -0.121295 -2.52002
lowerback 6.17685 -0.488024 -0.259043
upperback 0.555352 -0.550978 3.86331
thorax -2.85193 -0.251131 4.19383
lowerneck -13.4786 -2.23701 -8.50581
upperneck 21.1909 -1.81303 2.90783
head 8.98273 -1.22492 2.20027
rclavicle 1.60767e-014 -1.43125e-014
rhumerus -37.9606 -17.8863 -72.976
rradius 24.2343
rwrist 13.2424
rhand -13.3284 8.68483
rfingers 7.12502
rthumb 12.7767 -20.9042
lclavicle 1.60767e-014 -1.43125e-014
lhumerus -29.2798 3.11468 86.1453
lradius 33.804
lwrist -3.38148
lhand -14.4297 30.536
lfingers 7.12502
lthumb 11.7147 60.1885
rfemur -9.43163 4.0467 28.9543
rtibia 28.1314
rfoot -11.6296 -4.8981
rtoes 1.79284
lfemur -20.2754 2.86981 -17.2064
ltibia 67.7338
lfoot 0.0168675 -4.8794
ltoes -10.1473
